<?xml version="1.0" encoding="UTF-8"?>
<svg version="1.1" xmlns="http://www.w3.org/2000/svg" width="1007" height="1007">
<path d="M0 0 C1.87885643 -0.01038551 1.87885643 -0.01038551 3.79566956 -0.02098083 C7.8143366 -0.03816812 11.83286716 -0.04489743 15.8515625 -0.046875 C16.53471149 -0.04761143 17.21786049 -0.04834785 17.92171097 -0.0491066 C37.23783398 -0.06608517 56.35542011 0.14213804 75.52441406 2.79736328 C78.34635618 3.18522863 81.16862883 3.51375691 84 3.82421875 C136.93048079 9.90767981 192.09890475 26.06560893 239.17382812 50.99658203 C242.03748426 52.49702612 244.92104048 53.95631911 247.8046875 55.41796875 C261.03761133 62.15334489 274.0135961 69.11427178 286.4765625 77.203125 C287.29785645 77.73373535 288.11915039 78.2643457 288.96533203 78.81103516 C310.83694287 93.00322583 331.90127111 108.36349002 351.10546875 126.04296875 C352.39475849 127.21756056 353.69151344 128.38492565 355.02319336 129.51123047 C361.67410326 135.16836708 367.80635714 141.34683527 373.97583008 147.51708984 C375.90100952 149.44008682 377.83405281 151.35493074 379.76757812 153.26953125 C386.06899675 159.54293502 392.09095515 165.83734683 397.58642578 172.83935547 C399.59723039 175.35403001 401.7270588 177.71594929 403.9140625 180.078125 C467.90558267 250.59037002 505.21048714 347.9413843 517.4765625 441.203125 C517.62899414 442.32831543 517.78142578 443.45350586 517.93847656 444.61279297 C523.08525919 484.36974347 522.90192591 526.4947579 517.4765625 566.203125 C517.21915283 568.14783691 517.21915283 568.14783691 516.95654297 570.13183594 C506.5081221 647.95459768 478.17390553 723.50126002 433.4765625 788.203125 C433.00750488 788.8847168 432.53844727 789.56630859 432.05517578 790.26855469 C425.20247846 800.19626719 418.05238297 809.81689558 410.4765625 819.203125 C409.69410156 820.18023438 408.91164063 821.15734375 408.10546875 822.1640625 C403.82524613 827.46055981 399.40725654 832.59502864 394.8125 837.62109375 C393.5789003 838.98465463 392.34989072 840.35324143 391.1640625 841.75854492 C385.3840667 848.5626929 379.04419568 854.82156505 372.73535156 861.12963867 C370.73992836 863.12724452 368.75265194 865.13271853 366.765625 867.13867188 C359.63744342 874.29795057 352.41471182 880.9436554 344.4765625 887.203125 C342.75082444 888.66825315 341.04863072 890.15678197 339.34716797 891.64990234 C312.24205834 915.40828268 281.35618622 934.61488986 249.4765625 951.203125 C248.44805176 951.74001953 247.41954102 952.27691406 246.35986328 952.83007812 C232.69069953 959.92740169 218.81753154 966.26835772 204.51513672 971.98339844 C202.33431209 972.85881221 200.15950425 973.74927179 197.98876953 974.64941406 C188.9601479 978.3742004 179.83821592 981.43163882 170.4765625 984.203125 C169.75946106 984.41723022 169.04235962 984.63133545 168.30352783 984.85192871 C140.77641911 993.06781732 113.1194305 999.41357255 84.6640625 1003.453125 C83.09664307 1003.67959717 83.09664307 1003.67959717 81.49755859 1003.91064453 C60.23988448 1006.76279352 38.90362473 1007.58428098 17.4765625 1007.515625 C16.28311218 1007.51380219 15.08966187 1007.51197937 13.86004639 1007.51010132 C-5.76540276 1007.45990877 -25.05539549 1006.71600034 -44.5234375 1004.203125 C-45.19473694 1004.11826843 -45.86603638 1004.03341187 -46.55767822 1003.94598389 C-77.19055783 1000.06266343 -106.98464101 993.23694665 -136.5234375 984.203125 C-137.91731689 983.77845947 -137.91731689 983.77845947 -139.33935547 983.34521484 C-197.03122923 965.53251649 -251.56150611 934.91091791 -298.5234375 897.203125 C-299.50441406 896.41808594 -300.48539063 895.63304687 -301.49609375 894.82421875 C-306.78735137 890.54507229 -311.91882242 886.13063651 -316.94140625 881.5390625 C-318.30496713 880.3054628 -319.67355393 879.07645322 -321.07885742 877.890625 C-327.8830054 872.1106292 -334.14187755 865.77075818 -340.44995117 859.46191406 C-342.44755702 857.46649086 -344.45303103 855.47921444 -346.45898438 853.4921875 C-352.89964257 847.0791489 -359.08085055 840.65667055 -364.69970703 833.50048828 C-366.53558803 831.18781891 -368.46668087 829.00479916 -370.4609375 826.828125 C-393.47879329 801.13693557 -411.93639341 770.61813697 -428.31884766 740.41113281 C-429.49979688 738.24645815 -430.70364308 736.09581737 -431.91015625 733.9453125 C-444.24982999 711.61507142 -453.34926409 687.31672134 -461.5234375 663.203125 C-461.8023584 662.38553711 -462.0812793 661.56794922 -462.36865234 660.72558594 C-472.72511829 630.07146896 -479.24108112 598.23330888 -483.5234375 566.203125 C-483.75208496 564.57987305 -483.75208496 564.57987305 -483.98535156 562.92382812 C-489.34014532 523.4857143 -489.10408928 480.59435973 -483.5234375 441.203125 C-483.26602783 439.2862085 -483.26602783 439.2862085 -483.00341797 437.33056641 C-475.32626731 380.50522861 -458.07820964 326.52686144 -432.5234375 275.203125 C-432.04680664 274.24051758 -431.57017578 273.27791016 -431.07910156 272.28613281 C-420.06207233 250.16889842 -407.20927721 229.07707738 -392.5234375 209.203125 C-391.74742187 208.14480469 -390.97140625 207.08648437 -390.171875 205.99609375 C-387.98195933 203.04396361 -385.76267726 200.11799745 -383.5234375 197.203125 C-383.10771484 196.66123535 -382.69199219 196.1193457 -382.26367188 195.56103516 C-377.18605748 188.96201705 -371.99080698 182.47502846 -366.5859375 176.140625 C-366.15692139 175.63611816 -365.72790527 175.13161133 -365.28588867 174.61181641 C-356.19169832 164.06130779 -346.53324199 154.02623029 -336.68676758 144.18115234 C-334.95298807 142.44516544 -333.22742212 140.7012739 -331.50195312 138.95703125 C-325.53738446 132.96322139 -319.50454893 127.31592589 -312.86010742 122.07226562 C-310.61858308 120.27923351 -308.50303817 118.4037901 -306.3984375 116.453125 C-299.478806 110.24635074 -291.96682222 104.7585561 -284.5234375 99.203125 C-283.80478516 98.66494141 -283.08613281 98.12675781 -282.34570312 97.57226562 C-263.34028376 83.40019541 -243.29283963 71.14478183 -222.48095703 59.81542969 C-219.76717985 58.33600221 -217.06496565 56.83728185 -214.36328125 55.3359375 C-150.66629886 20.44933992 -72.59695566 0.27239065 0 0 Z " fill="#2C9659" transform="translate(486.5234375,-0.203125)"/>
<path d="M0 0 C5.90979605 4.29102583 11.27341149 9.09844739 16.34765625 14.33984375 C18.66368258 16.66682056 21.14697912 18.77550924 23.6328125 20.91796875 C26.63721725 23.56045675 29.56755467 26.27818154 32.5 29 C35.94114603 32.19204196 39.38248872 35.37178059 42.9375 38.4375 C47.35479616 42.25456908 51.59675191 46.25784945 55.86474609 50.23974609 C59.47955256 53.60612559 63.13796333 56.90284579 66.87890625 60.12890625 C69.79798266 62.70392946 72.64620346 65.35304715 75.5 68 C79.58566583 71.78886377 83.70393465 75.5217203 87.91796875 79.16796875 C91.13646877 82.00000723 94.28293411 84.91027948 97.43774414 87.81274414 C100.60797718 90.72804404 103.79403325 93.62390764 107 96.5 C110.68830722 99.8100193 114.35046898 103.14734853 118 106.5 C121.86803595 110.04933071 125.73798566 113.59644232 129.625 117.125 C130.42164063 117.84945312 131.21828125 118.57390625 132.0390625 119.3203125 C133.89813881 121.04999325 133.89813881 121.04999325 136 122 C135.99111755 121.01107758 135.98223511 120.02215515 135.9730835 119.00326538 C135.89193146 109.67516363 135.83200285 100.34713368 135.79275131 91.01875877 C135.77189309 86.22313071 135.74360772 81.42778804 135.69824219 76.63232422 C135.65472142 72.00279568 135.63084961 67.37354135 135.62049103 62.74382401 C135.61311083 60.97919016 135.59869889 59.21457101 135.57707977 57.45005417 C135.54796238 54.97467591 135.54404739 52.50042482 135.54589844 50.02490234 C135.53151733 49.29841492 135.51713623 48.57192749 135.50231934 47.82342529 C135.55373668 41.45191182 137.97009627 38.18593846 142.1754303 33.65734863 C146.19942772 31.29622204 149.60456137 31.43926655 154.19311523 31.48242188 C155.11079681 31.4754126 156.02847839 31.46840332 156.97396851 31.46118164 C160.00248626 31.44360054 163.03006675 31.45522596 166.05859375 31.46875 C168.16699909 31.46605489 170.27540323 31.46217232 172.38380432 31.45715332 C176.80131877 31.45125791 181.21850953 31.45982195 185.63598633 31.47851562 C191.29321571 31.50129096 196.94968543 31.488191 202.60688686 31.46422577 C206.96069541 31.44975716 211.31432449 31.45437896 215.6681385 31.46473694 C217.75370435 31.467402 219.83928659 31.46414225 221.9248333 31.45481873 C224.84282313 31.44463743 227.75959118 31.46017736 230.67749023 31.48242188 C231.53638351 31.47432495 232.39527679 31.46622803 233.28019714 31.45788574 C238.6318831 31.53330523 241.81506552 32.34953853 246 36 C248.46676301 39.62203379 248.22804414 42.97905732 248.19099426 47.27172852 C248.18761431 48.0058024 248.18423436 48.73987629 248.18075198 49.49619484 C248.16731149 51.95725535 248.13974933 54.41796234 248.11254883 56.87890625 C248.10056491 58.64324785 248.08964549 60.40759696 248.07971191 62.17195129 C248.05731118 65.97354632 248.02986663 69.77506124 247.99930763 73.57659912 C247.95350255 79.59548507 247.93453927 85.61426351 247.92228699 91.63330078 C247.9201206 92.64969887 247.91795422 93.66609695 247.91572219 94.71329498 C247.91138685 96.79191318 247.90713441 98.87053155 247.90296304 100.94915009 C247.87420263 114.96083271 247.82987707 128.97174253 247.7019043 142.98291016 C247.61576997 152.43504002 247.57594868 161.88612486 247.58915728 171.33865452 C247.59432117 176.3378027 247.57618921 181.33439389 247.50144386 186.33303833 C247.43141869 191.0422394 247.42281659 195.74768162 247.45978546 200.45722008 C247.46261677 202.17773289 247.44350018 203.89845589 247.39986992 205.61841774 C247.09182668 215.86738761 247.09182668 215.86738761 251.80582237 224.61676025 C254.47921671 227.26107368 257.33440613 229.58827278 260.36773527 231.80585098 C262.80250628 233.5871058 265.1098461 235.51962391 267.4375 237.4375 C268.31921875 238.14519531 269.2009375 238.85289062 270.109375 239.58203125 C274.8398211 243.53898549 279.29474188 247.78739902 283.79296875 252.00390625 C288.4639332 256.38116714 293.29747541 260.5514289 298.171875 264.69921875 C305.01518479 270.53018213 311.73983217 276.45408334 318.34375 282.5546875 C322.8387427 286.6927249 327.44853666 290.68725687 332.109375 294.63671875 C338.87855147 300.38491052 345.48901299 306.24760936 351.9440918 312.34741211 C355.47493132 315.66072358 359.1081746 318.7161109 362.9375 321.6875 C369.33070904 326.81715445 375.50580382 333.69891014 377 342 C377.97828967 352.65248749 376.11954791 360.58556522 369.25 368.875 C362.92544622 375.54110324 356.01875391 377.98549189 346.9375 378.4375 C338.28063264 378.33249757 330.93158465 374.29168008 324.9375 368.1875 C324.00550781 367.17236328 324.00550781 367.17236328 323.0546875 366.13671875 C319.96515455 362.92383943 316.49022654 360.23651572 313.00390625 357.46875 C310.3825253 355.3143771 307.84403207 353.10356073 305.31225586 350.84570312 C304.50404892 350.12547974 303.69584198 349.40525635 302.86314392 348.66320801 C302.24830643 348.11434937 301.63346893 347.56549072 301 347 C300.99978263 347.67331309 300.99956526 348.34662617 300.99934131 349.04034269 C300.98582221 388.9561742 300.94632516 428.87190453 300.87314438 468.7876732 C300.86437774 473.581593 300.85582792 478.37551316 300.84741211 483.16943359 C300.84489352 484.60099403 300.84489352 484.60099403 300.84232404 486.06147487 C300.81566229 501.50972294 300.80655955 516.95793389 300.80395857 532.4062026 C300.80089793 548.26037673 300.77893832 564.11444367 300.73947543 579.9685694 C300.71572374 589.74956813 300.70667125 599.53035281 300.71648689 609.31137641 C300.72180717 616.0207728 300.70875167 622.72997758 300.6813371 629.43931942 C300.66606546 633.30895626 300.65880891 637.17816419 300.67340279 641.04781342 C300.68903306 645.24859443 300.66592269 649.4482922 300.63923645 653.64901733 C300.65524634 655.47297989 300.65524634 655.47297989 300.67157966 657.33379018 C300.57491811 665.49472944 299.08926812 672.31646477 293.59282905 678.61166608 C287.23630542 684.35327109 280.84622871 685.44503053 272.66821289 685.34057617 C271.76010864 685.34101425 270.85200439 685.34145233 269.91638184 685.34190369 C266.93491612 685.3398249 263.95402292 685.31653684 260.97265625 685.29296875 C258.89758105 685.28736956 256.82250186 685.28310099 254.74742126 685.28010559 C249.30086204 685.26868229 243.85454498 685.23923667 238.40808105 685.20599365 C232.84435298 685.17523856 227.28058556 685.16158864 221.71679688 685.14648438 C210.81109186 685.11436463 199.90556611 685.06319866 189 685 C189.11568958 684.40895383 189.23137917 683.81790766 189.35057449 683.208951 C189.88170327 680.48601071 190.40816135 677.76218659 190.93457031 675.03833008 C191.1165799 674.10889839 191.29858948 673.17946671 191.4861145 672.22187042 C193.05600419 664.06900072 194.0267986 655.96020665 194.75 647.6875 C195.36875 640.9121875 195.36875 640.9121875 196 634 C212.83 634 229.66 634 247 634 C247.09852901 591.47612145 247.15013943 548.9525264 247.12847102 506.42852742 C247.12595781 501.40799953 247.12387961 496.38747155 247.12207031 491.36694336 C247.12151905 489.86770063 247.12151905 489.86770063 247.12095664 488.33817016 C247.11604359 472.15519669 247.14636944 455.97247141 247.18972255 439.78956348 C247.23342365 423.18389949 247.23924573 406.57853363 247.2099179 389.97283643 C247.1930147 379.7263104 247.205643 369.48069505 247.25606923 359.23427551 C247.28781979 352.2075149 247.28277023 345.18138035 247.24884398 338.15463234 C247.2303542 334.10034956 247.22803069 330.04776335 247.26943016 325.99361229 C247.30701084 322.27828921 247.29816731 318.56601564 247.25305675 314.85080307 C247.24097925 312.87703237 247.27799298 310.90314768 247.3169862 308.92972523 C247.21501338 303.76498974 247.08806415 300.35963663 243.79235625 296.24134529 C241.29106332 293.97110077 238.74368577 291.96566717 236 290 C234.29166667 288.45833333 232.58333333 286.91666667 230.875 285.375 C227.93506943 282.72814662 224.98228278 280.09901752 222 277.5 C216.44200237 272.65628319 210.97150702 267.71331921 205.52734375 262.7421875 C201.23842853 258.84070202 196.8939394 255.07135058 192.375 251.4375 C188.28084775 248.12647673 184.54283517 244.65059544 180.87109375 240.8828125 C176.78400691 236.77012804 172.29511406 233.09755629 167.875 229.3515625 C161.11301763 223.60680996 154.51719043 217.74059779 148.0559082 211.65917969 C143.65844637 207.54568565 139.09067202 203.74990975 134.390625 199.984375 C131.63550944 197.69744901 129.15166193 195.24200143 126.6640625 192.671875 C124.27847909 190.27509166 121.72744074 188.09079027 119.16796875 185.8828125 C116.75157049 183.7842468 114.37470976 181.645603 112 179.5 C109.04130249 176.82951656 106.07073528 174.17701942 103.0625 171.5625 C99.88778403 168.80215459 96.78462564 165.97207442 93.6875 163.125 C89.98857493 159.74371115 86.21927916 156.51340985 82.3125 153.375 C78.24174689 150.09064238 74.53018949 146.64146769 70.88671875 142.89453125 C68.41257111 140.41013869 65.78901319 138.13407214 63.1328125 135.84765625 C60.72623179 133.7628345 58.36235055 131.63478467 56 129.5 C53.01937279 126.81016569 50.02754767 124.13689636 47 121.5 C41.41020011 116.62856797 35.92465102 111.6410485 30.421875 106.671875 C25.9912288 102.67613885 21.53909528 98.71032796 17.0390625 94.79296875 C14.79710187 92.82158957 12.58614197 90.81837309 10.375 88.8125 C6.17519558 85.02354601 1.91618798 81.30961824 -2.375 77.625 C-2.97006348 77.11300049 -3.56512695 76.60100098 -4.17822266 76.07348633 C-7.05204918 73.61445992 -9.93410897 71.22012799 -13 69 C-13.79921875 69.73863281 -14.5984375 70.47726563 -15.421875 71.23828125 C-18.94603828 74.49422526 -22.47250849 77.74766235 -26 81 C-26.82395264 81.75990234 -26.82395264 81.75990234 -27.66455078 82.53515625 C-37.41175 91.51875 -37.41175 91.51875 -41.8125 95.3125 C-46.49884247 99.37006696 -50.98558374 103.6422185 -55.5065918 107.8815918 C-59.25136464 111.38684888 -63.03426204 114.82514732 -66.921875 118.171875 C-69.78514287 120.69068959 -72.57785992 123.28318404 -75.375 125.875 C-80.8717077 130.96775847 -86.41796319 136.00075333 -92 141 C-93.667057 142.49956619 -95.33371995 143.99957053 -97 145.5 C-99.47502234 147.72829114 -101.95071754 149.9557884 -104.4296875 152.1796875 C-109.0203061 156.30097768 -113.58447107 160.44873788 -118.125 164.625 C-121.99367822 168.18253099 -125.90334125 171.68289575 -129.875 175.125 C-133.15508581 178.01919336 -136.36268057 180.99218892 -139.58032227 183.95532227 C-142.33473428 186.48740116 -145.10742499 188.99035268 -147.9375 191.4375 C-151.52958591 194.54964124 -155.01551992 197.76872086 -158.5 201 C-162.58570879 204.78881936 -166.70393273 208.52171864 -170.91796875 212.16796875 C-173.60516498 214.53249977 -176.24051549 216.95216715 -178.875 219.375 C-185.47779662 225.44666828 -192.10150348 231.49348656 -198.875 237.375 C-202.841749 240.82783819 -206.70682669 244.38877381 -210.57543945 247.95043945 C-213.98598806 251.08517052 -217.44159116 254.15726302 -220.94140625 257.19140625 C-223.4895665 259.4301125 -225.99410593 261.71410212 -228.5 264 C-231.61907011 266.84524228 -234.74755391 269.6719958 -237.9375 272.4375 C-241.3468883 275.39883727 -244.67786038 278.4416122 -248 281.5 C-260.89109884 293.36125914 -260.89109884 293.36125914 -265.07216072 295.76960278 C-267.32800617 297.67707186 -267.94375604 298.73280547 -268.55959296 301.65842211 C-268.77686408 305.22382599 -268.7971429 308.74715664 -268.75949097 312.31916809 C-268.76623892 313.70530628 -268.77561757 315.09143375 -268.78740036 316.47753829 C-268.81215852 320.28606664 -268.7995712 324.09370004 -268.78093672 327.90222967 C-268.7673661 332.00926558 -268.78835482 336.11614092 -268.80516052 340.22314453 C-268.82954002 347.33860303 -268.83199086 354.45379869 -268.81957626 361.56928444 C-268.80165857 371.85704211 -268.81676785 382.14454235 -268.83995558 392.43227979 C-268.87667762 409.1230862 -268.88666448 425.81379742 -268.87988281 442.50463867 C-268.87335195 458.71886431 -268.87938473 474.93300493 -268.90234375 491.1472168 C-268.90445973 492.64621165 -268.90445973 492.64621165 -268.90661846 494.17548922 C-268.91377286 499.18880024 -268.92117457 504.20211085 -268.92869925 509.21542132 C-268.99081069 550.81029381 -269.00790592 592.40508684 -269 634 C-251.51 634 -234.02 634 -216 634 C-215.34 641.59 -214.68 649.18 -214 657 C-213.35887791 661.25386846 -212.70544676 665.41740308 -211.875 669.625 C-211.5144189 671.51229684 -211.15750432 673.40029878 -210.8046875 675.2890625 C-210.64983887 676.08006348 -210.49499023 676.87106445 -210.33544922 677.68603516 C-209.9776247 680.15434723 -209.97782858 682.50915232 -210 685 C-222.21365194 685.11610736 -234.42717148 685.20482385 -246.64126396 685.25906086 C-252.31345052 685.28509861 -257.98525808 685.32039058 -263.65722656 685.37719727 C-269.13616765 685.43172418 -274.61474533 685.46146429 -280.09393692 685.47438622 C-282.17904502 685.48358899 -284.26413435 685.50155976 -286.34908676 685.52865028 C-308.89340224 685.80979336 -308.89340224 685.80979336 -316.90719604 678.1855011 C-321.36836043 673.46470828 -323.24642822 668.90074576 -323.26171303 662.37158489 C-323.26917852 661.24345967 -323.27664401 660.11533445 -323.28433573 658.95302361 C-323.28143363 657.10137832 -323.28143363 657.10137832 -323.2784729 655.21232605 C-323.2842653 653.89723362 -323.2900577 652.58214119 -323.29602563 651.22719747 C-323.31183001 647.57857341 -323.31525655 643.93002635 -323.31667423 640.28137219 C-323.32036751 636.34615899 -323.33552264 632.41098807 -323.34928894 628.47579956 C-323.37156784 621.65835703 -323.38657734 614.84092954 -323.39665604 608.02345848 C-323.41123865 598.16653294 -323.43677431 588.30965974 -323.46498732 578.45276491 C-323.5104629 562.46079267 -323.54707455 546.46881291 -323.578125 530.47680664 C-323.6083074 514.94163693 -323.64265625 499.40648566 -323.68261719 483.87133789 C-323.68507874 482.91382593 -323.68754028 481.95631396 -323.69007643 480.96978649 C-323.70245097 476.16625261 -323.71490751 471.36271895 -323.72740483 466.55918539 C-323.8309841 426.70614914 -323.92018357 386.85309051 -324 347 C-324.89058105 347.82346924 -325.78116211 348.64693848 -326.69873047 349.49536133 C-327.8798667 350.58676874 -329.06101994 351.67815774 -330.2421875 352.76953125 C-330.82766357 353.31097778 -331.41313965 353.85242432 -332.01635742 354.41027832 C-336.28097864 358.34973341 -340.57528617 362.24027206 -345 366 C-345.88558594 366.76441406 -346.77117187 367.52882813 -347.68359375 368.31640625 C-355.93470263 375.2912242 -361.7243395 378.62938452 -372.7109375 378.3515625 C-380.29109315 377.54133209 -386.71390202 374.52637516 -392 369 C-397.85343501 360.65369031 -400.27316857 353.23839728 -399 343 C-395.77208394 331.51606787 -386.68381315 324.47655737 -378 317 C-377.20722656 316.29875 -376.41445313 315.5975 -375.59765625 314.875 C-374.36728536 313.78804657 -373.13073413 312.70802917 -371.88671875 311.63671875 C-369.56341213 309.62126228 -367.28251535 307.56151538 -365 305.5 C-361.38323655 302.23609152 -357.73610392 299.01209051 -354.0625 295.8125 C-350.82348414 292.96609213 -347.63036144 290.06904969 -344.4296875 287.1796875 C-342.3439382 285.30854906 -340.24182372 283.46075169 -338.125 281.625 C-334.158251 278.17216181 -330.29317331 274.61122619 -326.42456055 271.04956055 C-323.01401194 267.91482948 -319.55840884 264.84273698 -316.05859375 261.80859375 C-313.5104335 259.5698875 -311.00589407 257.28589788 -308.5 255 C-304.73649479 251.56735239 -300.93870649 248.1844499 -297.09375 244.84375 C-294.53580973 242.59123543 -292.0182102 240.29682908 -289.5 238 C-285.73649479 234.56735239 -281.93870649 231.1844499 -278.09375 227.84375 C-274.5718753 224.74239765 -271.11922978 221.56486667 -267.65234375 218.40234375 C-265.47539004 216.43058156 -263.28161326 214.48634663 -261.0625 212.5625 C-257.6531142 209.6011649 -254.3220569 206.55847514 -251 203.5 C-247.04137814 199.85585671 -243.0482324 196.26086283 -238.984375 192.734375 C-234.94625309 189.20499286 -230.98085319 185.59365774 -227 182 C-224.50312008 179.75203023 -222.00546849 177.50491993 -219.5078125 175.2578125 C-217.81407106 173.73291756 -216.12138831 172.20684598 -214.4296875 170.6796875 C-210.68435744 167.30087292 -206.93481793 163.93104035 -203.125 160.625 C-199.15747276 157.17148439 -195.2915236 153.6099606 -191.42236328 150.04736328 C-188.0355544 146.93414956 -184.60102456 143.88755462 -181.125 140.875 C-178.38176582 138.45449925 -175.69115432 135.97799358 -173 133.5 C-169.69971077 130.46111982 -166.39050717 127.43843955 -163 124.5 C-157.56297478 119.78192027 -152.29466408 114.87632025 -147 110 C-135.42694257 99.34135698 -135.42694257 99.34135698 -131.0625 95.5625 C-126.93244815 91.98197688 -122.9339593 88.26420238 -118.92480469 84.54980469 C-113.21130836 79.25977538 -107.41887333 74.06017187 -101.6171875 68.8671875 C-92.0703186 60.30263308 -82.67828309 51.57411515 -73.3125 42.8125 C-68.43562554 38.25117713 -63.52018903 33.74104848 -58.54296875 29.2890625 C-55.40460409 26.46405222 -52.29300378 23.61104467 -49.1875 20.75 C-48.64786621 20.25419434 -48.10823242 19.75838867 -47.55224609 19.24755859 C-45.04211805 16.93081724 -42.61366465 14.60000357 -40.23828125 12.140625 C-38 10 -38 10 -36 10 C-35.74476563 9.40316406 -35.48953125 8.80632813 -35.2265625 8.19140625 C-32.22582885 2.83022289 -25.84721486 -0.64885863 -20.1328125 -2.53125 C-13.17557554 -4.06031307 -6.20628782 -3.60328432 0 0 Z " fill="#135763" transform="translate(516,40)"/>
<path d="M0 0 C2.08144656 1.84403157 4.1462337 3.70154056 6.1875 5.58984375 C2.20985455 11.37844973 -2.34318496 16.23707395 -7.359375 21.140625 C-10.1123152 23.88918154 -12.64045271 26.77286109 -15.16796875 29.7265625 C-17.3564537 32.20615233 -19.70794013 34.49605555 -22.06640625 36.8125 C-23.87727643 38.65577949 -25.56571354 40.56807174 -27.25 42.52734375 C-30.28515563 46.0513835 -33.5120452 49.3120713 -36.828125 52.5703125 C-39.41850634 55.20658643 -41.80264777 57.9931031 -44.171875 60.828125 C-45.90512501 62.68930537 -47.73894427 64.12483155 -49.8125 65.58984375 C-50.37195313 65.04457031 -50.93140625 64.49929688 -51.5078125 63.9375 C-70.26580067 46.29534071 -93.96577742 36.80607512 -119.82055664 37.1875 C-143.76429122 38.05827121 -165.80271991 46.66437817 -183.8125 62.58984375 C-184.41191406 63.10675781 -185.01132812 63.62367188 -185.62890625 64.15625 C-202.7285596 79.98632352 -214.51802697 105.86841855 -216.03369141 128.9597168 C-217.09516124 161.92625976 -211.19294807 191.36812786 -188.8125 216.58984375 C-188.173125 217.32332031 -187.53375 218.05679687 -186.875 218.8125 C-166.89421016 240.26914363 -141.1076694 247.44593604 -112.8125 250.58984375 C-112.8125 277.31984375 -112.8125 304.04984375 -112.8125 331.58984375 C-130.40263799 331.58984375 -130.40263799 331.58984375 -138.5 330.40234375 C-139.4278833 330.26924805 -140.3557666 330.13615234 -141.31176758 329.99902344 C-179.6381535 324.1812479 -214.68556223 307.24112342 -242.8125 280.58984375 C-243.69550781 279.7596875 -244.57851563 278.92953125 -245.48828125 278.07421875 C-282.14724773 242.60783534 -299.98168071 192.30456423 -301.09545898 142.00244141 C-301.6176922 90.51283547 -279.65196417 43.45275987 -244.25 6.77734375 C-179.30824433 -55.52954355 -78.58548621 -61.371565 0 0 Z " fill="#F24842" transform="translate(621.8125,522.41015625)"/>
<path d="M0 0 C60.39 0 120.78 0 183 0 C186.53198841 22.36925996 186.53198841 22.36925996 186.4375 32.875 C186.43137695 34.08824951 186.42525391 35.30149902 186.41894531 36.55151367 C186.10149946 55.53599686 183.47025905 74.79104081 178 93 C177.66331299 94.13937012 177.66331299 94.13937012 177.31982422 95.30175781 C164.08489207 139.83132887 138.671093 177.79265852 97.19995117 200.38256836 C87.72755201 205.39928252 78.21160215 209.73753957 68 213 C67.33033203 213.21849609 66.66066406 213.43699219 65.97070312 213.66210938 C56.6445856 216.64821837 47.21842304 218.64793922 37.5625 220.25 C36.59965088 220.41322754 35.63680176 220.57645508 34.64477539 220.74462891 C25.02722701 222.23770619 15.87681826 222.48016746 6 223 C6 196.27 6 169.54 6 142 C8.85909051 140.57045475 11.63740148 140.53738212 14.8125 140.1875 C39.13329809 137.18720455 65.13876361 124.48590348 81.09375 105.62109375 C88.71537156 95.1413641 92.07770004 84.55135989 96 72 C64.32 72 32.64 72 0 72 C0 48.24 0 24.48 0 0 Z " fill="#135763" transform="translate(503,631)"/>
<path d="M0 0 C1.24245483 -0.0038269 2.48490967 -0.00765381 3.76501465 -0.01159668 C7.05747722 -0.01500856 10.3491789 0.00103436 13.64154053 0.0234375 C15.6546642 0.03124385 17.66709044 0.02346383 19.68017578 0.00976562 C23.55794487 -0.01497293 27.43468763 -0.01194411 31.3125 0 C32.50951538 -0.00809692 33.70653076 -0.01619385 34.93981934 -0.02453613 C45.63938513 0.09577008 45.63938513 0.09577008 50.15625 4.53125 C54.25676265 10.02243724 53.60654941 16.37466776 53.58984375 22.9375 C53.5950856 24.13556274 53.60032745 25.33362549 53.60572815 26.56799316 C53.61214002 29.09626492 53.61082223 31.62456653 53.60229492 34.15283203 C53.59377965 38.017793 53.62256968 41.88127845 53.65429688 45.74609375 C53.65590889 48.20572872 53.65533135 50.66536631 53.65234375 53.125 C53.66357773 54.27826782 53.67481171 55.43153564 53.68638611 56.61975098 C53.63364607 62.6989814 53.54001921 66.89651059 49.15625 71.53125 C45.47168151 74.15118483 42.95232141 74.91057388 38.45141602 74.93530273 C36.76925743 74.95432899 36.76925743 74.95432899 35.05311584 74.97373962 C33.24985085 74.96933617 33.24985085 74.96933617 31.41015625 74.96484375 C30.16628647 74.9700856 28.92241669 74.97532745 27.64085388 74.98072815 C24.34029659 74.9887881 21.04015561 74.9816895 17.73962402 74.97039795 C15.72195454 74.96875261 13.70484847 74.98073146 11.68725586 74.99780273 C7.80295493 75.02849268 3.91955906 75.03188471 0.03515625 75.02734375 C-1.16499619 75.03857773 -2.36514862 75.04981171 -3.60166931 75.06138611 C-14.33002817 74.97189385 -14.33002817 74.97189385 -18.84375 70.53125 C-22.9050738 65.06898922 -22.27717932 58.8630213 -22.2421875 52.34375 C-22.24505768 51.1678833 -22.24792786 49.9920166 -22.25088501 48.78051758 C-22.25292263 46.2993115 -22.24741397 43.81808924 -22.23486328 41.33691406 C-22.21880634 37.5445556 -22.23472328 33.75326292 -22.25390625 29.9609375 C-22.25192377 27.54687265 -22.24807999 25.13280847 -22.2421875 22.71875 C-22.24826019 21.58735596 -22.25433289 20.45596191 -22.2605896 19.2902832 C-22.16893103 9.00343857 -22.16893103 9.00343857 -18.84375 4.53125 C-13.43578043 -0.77927867 -7.12063261 -0.04816581 0 0 Z " fill="#F34842" transform="translate(536.84375,276.46875)"/>
<path d="M0 0 C1.08154861 -0.00960754 2.16309723 -0.01921509 3.27742004 -0.02911377 C4.44617172 -0.03336365 5.6149234 -0.03761353 6.8190918 -0.04199219 C8.02139938 -0.04769226 9.22370697 -0.05339233 10.46244812 -0.05926514 C13.00864786 -0.06871794 15.55485985 -0.07525023 18.10107422 -0.07910156 C21.99232388 -0.0888024 25.88304437 -0.11982218 29.77416992 -0.15136719 C32.24747408 -0.15789773 34.72078201 -0.163148 37.1940918 -0.16699219 C38.35677078 -0.17933899 39.51944977 -0.19168579 40.71736145 -0.20440674 C51.41074135 -0.17499176 51.41074135 -0.17499176 55.70581055 3.16113281 C60.57813776 9.20734954 60.2902092 15.12880477 60.23706055 22.66503906 C60.2428009 24.46001076 60.2428009 24.46001076 60.24865723 26.29124451 C60.25137186 28.81355636 60.24404234 31.33589658 60.22729492 33.8581543 C60.20586218 37.71434327 60.22712384 41.56867303 60.25268555 45.42480469 C60.25004256 47.87988691 60.2449182 50.33496799 60.23706055 52.79003906 C60.24515747 53.94016983 60.25325439 55.0903006 60.26159668 56.27528381 C60.19063569 62.34276029 60.07459156 66.53357546 55.70581055 71.16113281 C52.02144406 73.78130274 49.50179035 74.54045719 45.00097656 74.56518555 C43.31881798 74.58421181 43.31881798 74.58421181 41.60267639 74.60362244 C39.79941139 74.59921898 39.79941139 74.59921898 37.9597168 74.59472656 C36.71584702 74.59996841 35.47197723 74.60521027 34.19041443 74.61061096 C30.88985714 74.61867092 27.58971616 74.61157232 24.28918457 74.60028076 C22.27151508 74.59863543 20.25440902 74.61061427 18.23681641 74.62768555 C14.35251548 74.6583755 10.46911961 74.66176752 6.5847168 74.65722656 C5.38456436 74.66846054 4.18441193 74.67969452 2.94789124 74.69126892 C-7.89867147 74.60079065 -7.89867147 74.60079065 -12.29418945 70.16113281 C-15.9860455 64.15565518 -15.73135598 58.21710188 -15.69262695 51.31347656 C-15.69549713 50.1834169 -15.69836731 49.05335724 -15.70132446 47.88905334 C-15.70335973 45.50798031 -15.69786759 43.12689036 -15.68530273 40.74584961 C-15.66922732 37.10720385 -15.6851783 33.46966633 -15.7043457 29.83105469 C-15.70236347 27.51269287 -15.69852021 25.19433174 -15.69262695 22.87597656 C-15.69869965 21.79146713 -15.70477234 20.7069577 -15.71102905 19.58958435 C-15.64738522 12.73804478 -14.90945802 8.18503709 -10.29418945 2.84863281 C-7.00557302 0.0738627 -4.14128143 0.02969273 0 0 Z " fill="#F34742" transform="translate(530.294189453125,371.8388671875)"/>
<path d="M0 0 C1.12474228 -0.00953201 2.24948456 -0.01906403 3.40830994 -0.02888489 C4.61878494 -0.02797348 5.82925995 -0.02706207 7.07641602 -0.02612305 C8.32407242 -0.03040817 9.57172882 -0.0346933 10.85719299 -0.03910828 C13.49592166 -0.04485175 16.13425918 -0.04628698 18.77294922 -0.04101562 C22.1467737 -0.03522252 25.52004892 -0.05215232 28.89378262 -0.0753603 C32.12132284 -0.09367388 35.3488332 -0.08991165 38.57641602 -0.08862305 C39.78486679 -0.09783279 40.99331757 -0.10704254 42.23838806 -0.11653137 C43.93022972 -0.10718819 43.93022972 -0.10718819 45.65625 -0.09765625 C46.645681 -0.09828568 47.635112 -0.0989151 48.65452576 -0.0995636 C53.11482062 0.5099904 55.56543125 2.42982183 58.67098999 5.6008606 C60.66881348 8.70323923 60.90834193 10.39454896 60.94213867 14.05541992 C60.97073471 15.7627681 60.97073471 15.7627681 60.99990845 17.50460815 C60.99808563 18.72552155 60.99626282 19.94643494 60.99438477 21.2043457 C61.00295502 22.46803986 61.01152527 23.73173401 61.02035522 25.03372192 C61.03183642 27.70558381 61.03472324 30.37589876 61.02416992 33.04760742 C61.0125934 36.45658979 61.04641566 39.86339406 61.09285927 43.27201653 C61.12956789 46.54110811 61.12196019 49.81008533 61.11938477 53.0793457 C61.13780426 54.29621063 61.15622375 55.51307556 61.17520142 56.76681519 C61.10421004 63.28912669 60.67065162 67.37980791 55.9727478 72.10964966 C52.77401294 74.46833895 49.72306992 74.40944047 45.89916992 74.43579102 C44.77435211 74.44539856 43.6495343 74.4550061 42.4906311 74.46490479 C41.27499481 74.46915466 40.05935852 74.47340454 38.80688477 74.4777832 C37.55781342 74.48348328 36.30874207 74.48918335 35.02182007 74.49505615 C32.37722123 74.50450918 29.73273596 74.51140458 27.08813477 74.51489258 C23.70647141 74.5203752 20.32521112 74.54440276 16.94367409 74.57286453 C13.7106083 74.59601512 10.47752183 74.59794205 7.24438477 74.6027832 C6.03279694 74.61513 4.82120911 74.62747681 3.57290649 74.64019775 C2.44178436 74.63719666 1.31066223 74.63419556 0.14526367 74.63110352 C-0.84718353 74.63474915 -1.83963074 74.63839478 -2.8621521 74.64215088 C-7.24913977 74.05483912 -9.70664103 72.44286717 -12.39442444 68.95617676 C-13.78561818 65.88010857 -13.99342284 63.73857511 -14.01123047 60.37036133 C-14.02391464 59.20565308 -14.03659882 58.04094482 -14.04966736 56.84094238 C-14.04673172 55.5918811 -14.04379608 54.34281982 -14.04077148 53.0559082 C-14.04601334 51.76527466 -14.05125519 50.47464111 -14.05665588 49.14489746 C-14.06557186 46.41803179 -14.06318093 43.69145925 -14.05322266 40.96459961 C-14.04172588 37.47741444 -14.06196104 33.99124086 -14.09113979 30.50418854 C-14.11393841 27.16720855 -14.10703412 23.83046418 -14.10327148 20.4934082 C-14.11450546 19.24434692 -14.12573944 17.99528564 -14.13731384 16.70837402 C-14.12793289 15.54366577 -14.11855194 14.37895752 -14.10888672 13.17895508 C-14.10872055 12.1570105 -14.10855438 11.13506592 -14.10838318 10.08215332 C-13.46687826 6.48877273 -12.1482257 4.85847027 -9.60717773 2.2746582 C-6.4419331 0.11622828 -3.78312921 0.01763072 0 0 Z " fill="#F34742" transform="translate(430.607177734375,276.725341796875)"/>
<path d="M0 0 C1.12489334 -0.00960754 2.24978668 -0.01921509 3.4087677 -0.02911377 C5.23996407 -0.03548859 5.23996407 -0.03548859 7.1081543 -0.04199219 C8.98388374 -0.0505423 8.98388374 -0.0505423 10.89750671 -0.05926514 C13.54808188 -0.06872628 16.19854352 -0.07561722 18.84912109 -0.07910156 C22.23866025 -0.0845787 25.62779615 -0.10858956 29.01720905 -0.13707352 C32.25582684 -0.16022924 35.49446532 -0.1621519 38.7331543 -0.16699219 C39.94787918 -0.17933899 41.16260406 -0.19168579 42.41413879 -0.20440674 C43.54848862 -0.20140564 44.68283844 -0.19840454 45.8515625 -0.1953125 C46.84702591 -0.19895813 47.84248932 -0.20260376 48.86811829 -0.20635986 C53.32612279 0.38899988 56.76103727 2.73052988 59.61987305 6.16113281 C60.64024365 9.22224462 60.75843675 11.34065727 60.78100586 14.54711914 C60.7906134 15.64868851 60.80022095 16.75025787 60.81011963 17.88520813 C60.81436951 19.07583359 60.81861938 20.26645905 60.82299805 21.49316406 C60.82869812 22.71766769 60.83439819 23.94217133 60.840271 25.20378113 C60.84972418 27.79705948 60.85625624 30.39034986 60.86010742 32.98364258 C60.86980864 36.94731661 60.90082827 40.91047124 60.93237305 44.87402344 C60.93890354 47.39290056 60.94415383 49.9117814 60.94799805 52.43066406 C60.96034485 53.61521683 60.97269165 54.79976959 60.9854126 56.0202179 C60.95654404 66.70754075 60.95654404 66.70754075 57.61987305 71.16113281 C53.91846235 73.83627432 51.3454307 74.53853015 46.80737305 74.54931641 C45.66268555 74.55877289 44.51799805 74.56822937 43.33862305 74.57797241 C42.11143555 74.57189972 40.88424805 74.56582703 39.61987305 74.55957031 C38.35143555 74.56244049 37.08299805 74.56531067 35.77612305 74.56826782 C33.096122 74.57030799 30.4169438 74.56629466 27.73706055 74.55224609 C24.31054739 74.53515422 20.88473927 74.54500105 17.45825195 74.56296349 C14.1787674 74.5764409 10.89936681 74.56699104 7.61987305 74.55957031 C5.7790918 74.56867935 5.7790918 74.56867935 3.90112305 74.57797241 C2.75643555 74.56851593 1.61174805 74.55905945 0.43237305 74.54931641 C-0.57180664 74.54692963 -1.57598633 74.54454285 -2.6105957 74.54208374 C-7.01020655 73.93691424 -9.47395499 72.34187722 -12.16539001 68.83493042 C-13.54183906 65.80518295 -13.77789563 63.69918062 -13.81591797 60.38037109 C-13.83505753 59.24213898 -13.85419708 58.10390686 -13.87391663 56.93118286 C-13.8772551 55.71026947 -13.88059357 54.48935608 -13.8840332 53.23144531 C-13.8940184 51.96775116 -13.9040036 50.70405701 -13.91429138 49.40206909 C-13.92947115 46.73045113 -13.93781645 44.05974905 -13.93603516 41.38818359 C-13.93573052 37.97927297 -13.97667528 34.57224042 -14.02835178 31.16377449 C-14.06990251 27.89473674 -14.06798223 24.62571112 -14.0715332 21.35644531 C-14.09308975 20.13958038 -14.1146463 18.92271545 -14.13685608 17.66897583 C-14.08383878 11.0946573 -13.65749215 7.04352472 -8.8636322 2.32614136 C-5.88105461 -0.0161007 -3.72728447 0.02562734 0 0 Z " fill="#F34742" transform="translate(430.380126953125,371.8388671875)"/>
<path d="M0 0 C60.39 0 120.78 0 183 0 C183 1.65 183 3.3 183 5 C182.67 3.68 182.34 2.36 182 1 C181.21981506 1.01252808 180.43963013 1.02505615 179.63580322 1.03796387 C169.17403376 1.20396694 158.71209943 1.35637143 148.25 1.5 C146.95313263 1.51781588 146.95313263 1.51781588 145.63006592 1.53599167 C112.7530894 1.98269801 79.87975771 2.08764704 47 2.0625 C45.87269974 2.06164398 44.74539948 2.06078796 43.5839386 2.05990601 C29.72260113 2.04859139 15.86132638 2.02556392 2 2 C2 24.77 2 47.54 2 71 C33.02 71 64.04 71 96 71 C96 71.33 96 71.66 96 72 C64.32 72 32.64 72 0 72 C0 48.24 0 24.48 0 0 Z " fill="#0D4665" transform="translate(503,631)"/>
<path d="M0 0 C3.53508103 0.29459009 4.76203444 0.74881413 7.25 3.375 C9.75410243 7.13115365 10.13138801 9.88158252 10.17700195 14.29418945 C10.18983719 15.37573807 10.20267242 16.45728668 10.21589661 17.5716095 C10.22328354 18.74036118 10.23067047 19.90911285 10.23828125 21.11328125 C10.246353 22.31558884 10.25442474 23.51789642 10.26274109 24.75663757 C10.27657972 27.30283161 10.28730286 29.84904417 10.29516602 32.39526367 C10.31238563 36.28665323 10.35627647 40.17719482 10.40039062 44.06835938 C10.41051697 46.54166042 10.41903325 49.01496868 10.42578125 51.48828125 C10.44328934 52.65096024 10.46079742 53.81363922 10.47883606 55.0115509 C10.46198549 61.29547935 10.34512424 65.28865018 6 70 C4.515 70.99 4.515 70.99 3 72 C2.01 71.67 1.02 71.34 0 71 C1.98 70.01 1.98 70.01 4 69 C4 68.01 4 67.02 4 66 C4.48633911 65.55453827 4.97267822 65.10907654 5.47375488 64.65011597 C7.62412582 62.32521981 7.39282368 60.73015783 7.41992188 57.59814453 C7.43583374 56.49334747 7.45174561 55.38855042 7.46813965 54.25027466 C7.46834106 53.05651215 7.46854248 51.86274963 7.46875 50.6328125 C7.48017029 48.79249954 7.48017029 48.79249954 7.49182129 46.91500854 C7.50263588 44.31754595 7.50546992 41.72003982 7.50097656 39.12255859 C7.50000547 35.14737323 7.54159121 31.17412467 7.5859375 27.19921875 C7.59114516 24.67708737 7.59383268 22.15494926 7.59375 19.6328125 C7.61014526 18.44309845 7.62654053 17.2533844 7.64343262 16.02761841 C7.68420364 9.44756256 7.68420364 9.44756256 4.58789062 3.83544922 C3.73388672 3.22975098 2.87988281 2.62405273 2 2 C1.34 1.34 0.68 0.68 0 0 Z " fill="#F73E3D" transform="translate(580,278)"/>
<path d="M0 0 C0.66 0.33 1.32 0.66 2 1 C-2.42445069 5.5303551 -6.92473214 9.88366301 -11.7265625 14.01171875 C-15.08081681 16.94525044 -18.3460337 19.97422907 -21.61230469 23.00512695 C-24.9873863 26.12193457 -28.45243366 29.08404785 -32 32 C-32.66 31.67 -33.32 31.34 -34 31 C-29.87911351 26.76321358 -25.64289702 22.7431955 -21.16796875 18.8828125 C-18.75157049 16.7842468 -16.37470976 14.645603 -14 12.5 C-10.19677998 9.06710898 -6.36287677 5.67356693 -2.49609375 2.3125 C-1.64347059 1.56450684 -0.80201622 0.80201622 0 0 Z " fill="#0D4365" transform="translate(165,333)"/>
<path d="M0 0 C0.66 0.33 1.32 0.66 2 1 C-4.14333215 7.24496816 -10.32041496 13.32303016 -17 19 C-18.50175996 20.31048589 -20.00178932 21.62295788 -21.5 22.9375 C-22.66666667 23.95833333 -23.83333333 24.97916667 -25 26 C-25.66 25.67 -26.32 25.34 -27 25 C-22.93152407 20.81709819 -18.7513553 16.85212972 -14.33203125 13.04296875 C-9.47324981 8.78644832 -4.74959354 4.37754205 0 0 Z " fill="#31A757" transform="translate(400,201)"/>
<path d="M0 0 C1.13665504 3.40996511 0.91583208 3.86305848 -0.43359375 7.01171875 C-0.75263672 7.76904297 -1.07167969 8.52636719 -1.40039062 9.30664062 C-1.74263672 10.09232422 -2.08488281 10.87800781 -2.4375 11.6875 C-2.77587891 12.48478516 -3.11425781 13.28207031 -3.46289062 14.10351562 C-4.3000701 16.07265607 -5.1489353 18.03682084 -6 20 C-7.10370043 16.6888987 -6.92673641 14.75251051 -6.5625 11.3125 C-6.46066406 10.31863281 -6.35882813 9.32476563 -6.25390625 8.30078125 C-6.17011719 7.54152344 -6.08632813 6.78226563 -6 6 C-5.19175781 5.71382812 -4.38351562 5.42765625 -3.55078125 5.1328125 C-2.70902344 4.75898437 -1.86726563 4.38515625 -1 4 C-0.11306697 1.95894361 -0.11306697 1.95894361 0 0 Z " fill="#1CA05C" transform="translate(336,587)"/>
<path d="M0 0 C0.66 0.33 1.32 0.66 2 1 C0.08643227 2.94064652 -1.83067938 4.877557 -3.75 6.8125 C-4.55824219 7.63331055 -4.55824219 7.63331055 -5.3828125 8.47070312 C-8.11740863 11.22197363 -10.79683904 13.78422118 -14 16 C-14.66 15.67 -15.32 15.34 -16 15 C-10.72 10.05 -5.44 5.1 0 0 Z " fill="#32A857" transform="translate(442,163)"/>
<path d="M0 0 C0.66 0.33 1.32 0.66 2 1 C0.41984377 2.60729631 -1.16425652 4.21071576 -2.75 5.8125 C-3.63171875 6.70582031 -4.5134375 7.59914063 -5.421875 8.51953125 C-7.53448851 10.55212152 -9.60794665 12.31773818 -12 14 C-12.66 13.67 -13.32 13.34 -14 13 C-9.38 8.71 -4.76 4.42 0 0 Z " fill="#32A758" transform="translate(176,400)"/>
<path d="M0 0 C0 0.66 0 1.32 0 2 C-0.639375 2.12375 -1.27875 2.2475 -1.9375 2.375 C-2.618125 2.58125 -3.29875 2.7875 -4 3 C-4.33 3.66 -4.66 4.32 -5 5 C-7.9375 5.75 -7.9375 5.75 -11 6 C-11.66 5.34 -12.32 4.68 -13 4 C-11.2097939 3.32942113 -9.41778511 2.6636531 -7.625 2 C-6.62726563 1.62875 -5.62953125 1.2575 -4.6015625 0.875 C-2 0 -2 0 0 0 Z " fill="#E24841" transform="translate(451,486)"/>
<path d="M0 0 C0 3 0 3 -1.96875 5.04296875 C-2.8040625 5.75066406 -3.639375 6.45835937 -4.5 7.1875 C-5.3353125 7.90292969 -6.170625 8.61835938 -7.03125 9.35546875 C-7.6809375 9.89816406 -8.330625 10.44085938 -9 11 C-9.66 10.67 -10.32 10.34 -11 10 C-3.70159453 2.51708428 -3.70159453 2.51708428 0 0 Z " fill="#0E4565" transform="translate(396,126)"/>
<path d="M0 0 C0.33 0.99 0.66 1.98 1 3 C-6.75 2.25 -6.75 2.25 -9 0 C-5.52176885 -1.15941038 -3.54104422 -0.70820884 0 0 Z " fill="#F63E3E" transform="translate(456,843)"/>
<path d="M0 0 C0.99 0 1.98 0 3 0 C3 2.64 3 5.28 3 8 C2.34 8 1.68 8 1 8 C0.67 9.32 0.34 10.64 0 12 C0 8.04 0 4.08 0 0 Z " fill="#40915A" transform="translate(319,673)"/>
<path d="M0 0 C0 3 0 3 -1.96875 5.04296875 C-2.8040625 5.75066406 -3.639375 6.45835937 -4.5 7.1875 C-5.3353125 7.90292969 -6.170625 8.61835938 -7.03125 9.35546875 C-7.6809375 9.89816406 -8.330625 10.44085938 -9 11 C-9.66 10.67 -10.32 10.34 -11 10 C-5.555 5.05 -5.555 5.05 0 0 Z " fill="#0D4465" transform="translate(180,320)"/>
<path d="M0 0 C0.33 0.99 0.66 1.98 1 3 C-5.75 5.125 -5.75 5.125 -8 4 C-2.25 0 -2.25 0 0 0 Z " fill="#F53D3E" transform="translate(421,499)"/>
</svg>
